<?xml version="1.0" encoding="iso-8859-1"?>
<!-- Generator: Adobe Illustrator 19.0.0, SVG Export Plug-In . SVG Version: 6.00 Build 0)  -->
<svg version="1.1" id="Capa_1" xmlns="http://www.w3.org/2000/svg" xmlns:xlink="http://www.w3.org/1999/xlink" x="0px" y="0px"
	 viewBox="0 0 511.996 511.996" style="enable-background:new 0 0 511.996 511.996;" xml:space="preserve">
<g>
	<path style="fill:#629FD6;" d="M434.885,128.008C401.405,79.424,362.581,11.112,356.309,0
		c-6.272,11.112-45.096,79.424-78.576,128.008c-32.888,47.72-60.84,95.288-29.12,162.248
		c28.072,59.264,98.912,59.944,107.696,59.792c8.784,0.152,79.624-0.528,107.696-59.792
		C495.725,223.296,467.773,175.728,434.885,128.008z"/>
	<path style="fill:#629FD6;" d="M256.229,417.904c-14.184-20.592-30.64-49.536-33.296-54.248
		c-2.656,4.712-19.112,33.656-33.296,54.248c-13.936,20.224-25.784,40.384-12.344,68.752c11.896,25.112,41.92,25.4,45.64,25.336
		c3.72,0.064,33.744-0.224,45.64-25.336C282.013,458.288,270.165,438.128,256.229,417.904z"/>
	<path style="fill:#629FD6;" d="M147.085,224.704c-18.904-27.432-40.816-66-44.36-72.272c-3.544,6.272-25.456,44.84-44.36,72.272
		c-18.568,26.944-34.344,53.8-16.44,91.6c15.848,33.456,55.84,33.84,60.8,33.76c4.96,0.08,44.952-0.304,60.8-33.76
		C181.429,278.504,165.653,251.648,147.085,224.704z"/>
</g>
<g>
</g>
<g>
</g>
<g>
</g>
<g>
</g>
<g>
</g>
<g>
</g>
<g>
</g>
<g>
</g>
<g>
</g>
<g>
</g>
<g>
</g>
<g>
</g>
<g>
</g>
<g>
</g>
<g>
</g>
</svg>
