<?xml version="1.0" encoding="iso-8859-1"?>
<!-- Generator: Adobe Illustrator 19.0.0, SVG Export Plug-In . SVG Version: 6.00 Build 0)  -->
<svg version="1.1" id="Capa_1" xmlns="http://www.w3.org/2000/svg" xmlns:xlink="http://www.w3.org/1999/xlink" x="0px" y="0px"
	 viewBox="0 0 512 512" style="enable-background:new 0 0 512 512;" xml:space="preserve">
<g>
	<path style="fill:#FFD07D;" d="M469.016,431.53c17.048-17.048,31.36-35.784,42.984-55.656
		c-105.232,61.576-242.632,47.264-332.88-42.984S74.552,105.234,136.128,0.002C116.256,11.634,97.52,25.946,80.472,42.986
		c-107.296,107.296-107.296,281.24,0,388.536S361.712,538.826,469.016,431.53z"/>
	<path style="fill:#FFD07D;" d="M157.664,143.106h53.92l16.936-55.472l16.936,55.472h53.92l-43.6,33.672l16.936,55.088
		l-44.088-34.064l-44.088,34.064l16.84-55.088L157.664,143.106z"/>
</g>
<polygon style="fill:#629FD6;" points="228.616,197.802 272.704,231.866 255.768,176.778 299.368,143.106 245.456,143.106 
	228.52,87.634 211.584,143.106 157.664,143.106 201.36,176.778 184.528,231.866 "/>
<path style="fill:#FFD07D;" d="M282.528,265.554h38.48l12.088-39.592l12.088,39.592h38.48l-31.12,24.032l12.088,39.312
	l-31.464-24.312l-31.464,24.312l12.016-39.312L282.528,265.554z"/>
<polygon style="fill:#DFE6F4;" points="333.168,304.594 364.632,328.906 352.544,289.586 383.664,265.554 345.184,265.554 
	333.096,225.962 321.016,265.554 282.528,265.554 313.72,289.586 301.704,328.906 "/>
<g>
	<path style="fill:#FFD07D;" d="M355.864,191.65H376l6.328-20.72l6.328,20.72h20.136l-16.288,12.576l6.328,20.576l-16.464-12.72
		l-16.464,12.72l6.288-20.576L355.864,191.65z"/>
	<polygon style="fill:#FFD07D;" points="382.368,212.074 398.832,224.802 392.512,204.226 408.792,191.65 388.656,191.65 
		382.328,170.93 376.008,191.65 355.864,191.65 372.192,204.226 365.904,224.802 	"/>
</g>
<g>
</g>
<g>
</g>
<g>
</g>
<g>
</g>
<g>
</g>
<g>
</g>
<g>
</g>
<g>
</g>
<g>
</g>
<g>
</g>
<g>
</g>
<g>
</g>
<g>
</g>
<g>
</g>
<g>
</g>
</svg>
