<?xml version="1.0" encoding="iso-8859-1"?>
<!-- Generator: Adobe Illustrator 19.0.0, SVG Export Plug-In . SVG Version: 6.00 Build 0)  -->
<svg version="1.1" id="Capa_1" xmlns="http://www.w3.org/2000/svg" xmlns:xlink="http://www.w3.org/1999/xlink" x="0px" y="0px"
	 viewBox="0 0 511.992 511.992" style="enable-background:new 0 0 511.992 511.992;" xml:space="preserve">
<g>
	<path style="fill:#FFD07D;" d="M438.572,288.504c11.392-11.392,20.968-23.92,28.744-37.208
		c-70.36,41.168-162.216,31.6-222.552-28.744S174.844,70.36,216.012,0c-13.288,7.776-25.816,17.344-37.208,28.744
		c-71.736,71.736-71.736,188.032,0,259.768S366.836,360.24,438.572,288.504z"/>
	<path style="fill:#FFD07D;" d="M230.412,95.672h36.048l11.32-37.088l11.32,37.088h36.048l-29.152,22.512l11.32,36.832
		l-29.48-22.776l-29.48,22.776l11.256-36.832L230.412,95.672z"/>
</g>
<polygon style="fill:#629FD6;" points="277.852,132.24 307.324,155.016 296.004,118.184 325.156,95.672 289.108,95.672 
	277.78,58.584 266.46,95.672 230.412,95.672 259.628,118.184 248.372,155.016 "/>
<path style="fill:#FFD07D;" d="M313.892,177.544h25.728l8.08-26.472l8.08,26.472h25.728l-20.8,16.064l8.08,26.288l-21.04-16.256
	l-21.04,16.256l8.032-26.288L313.892,177.544z"/>
<polygon style="fill:#DFE6F4;" points="347.748,203.64 368.78,219.896 360.7,193.608 381.508,177.544 355.78,177.544 347.7,151.072 
	339.62,177.544 313.892,177.544 334.74,193.608 326.708,219.896 "/>
<g>
	<path style="fill:#FFD07D;" d="M362.924,128.128h13.464l4.232-13.856l4.232,13.856h13.464l-10.888,8.408l4.232,13.752
		l-11.008-8.504l-11.008,8.504l4.208-13.752L362.924,128.128z"/>
	<polygon style="fill:#FFD07D;" points="380.644,141.784 391.652,150.296 387.42,136.536 398.308,128.128 384.844,128.128 
		380.62,114.272 376.388,128.128 362.924,128.128 373.836,136.536 369.628,150.296 	"/>
</g>
<path style="fill:#DFE6F4;" d="M347.548,375.376h-5.504c-5.472-23.024-26.224-40.272-51.032-40.272
	c-6.032,0-12.136,1.328-17.192,3.016c-12.136-34.448-45.008-59.184-83.76-59.184c-49.072,0-88.848,39.576-88.848,88.4
	c0,3.08,0.168,6.104,0.464,9.104c-32.248,5.552-57,33.624-57,67.232c0,37.568,30.888,68.32,68.64,68.32h234.208
	c37.752,0,68.64-30.736,68.64-68.32C416.188,406.128,385.3,375.376,347.548,375.376z"/>
<g>
</g>
<g>
</g>
<g>
</g>
<g>
</g>
<g>
</g>
<g>
</g>
<g>
</g>
<g>
</g>
<g>
</g>
<g>
</g>
<g>
</g>
<g>
</g>
<g>
</g>
<g>
</g>
<g>
</g>
</svg>
