<?xml version="1.0" encoding="iso-8859-1"?>
<!-- Generator: Adobe Illustrator 19.0.0, SVG Export Plug-In . SVG Version: 6.00 Build 0)  -->
<svg version="1.1" id="Capa_1" xmlns="http://www.w3.org/2000/svg" xmlns:xlink="http://www.w3.org/1999/xlink" x="0px" y="0px"
	 viewBox="0 0 512 512" style="enable-background:new 0 0 512 512;" xml:space="preserve">
<path style="fill:#B5C0D6;" d="M459.976,253.888H455.8c-4.152-17.456-19.88-30.536-38.696-30.536c-4.568,0-9.2,1.008-13.032,2.288
	c-9.2-26.12-34.128-44.872-63.512-44.872c-37.208,0-67.368,30.008-67.368,67.032c0,2.336,0.128,4.632,0.352,6.904
	c-24.456,4.208-43.224,25.496-43.224,50.984c0,28.488,23.424,51.8,52.048,51.8h177.584c28.624,0,52.048-23.304,52.048-51.8
	C512.024,277.208,488.6,253.888,459.976,253.888z"/>
<path style="fill:#FFD07D;" d="M178.496,162.616c-58.824,0-106.504,47.68-106.504,106.504s47.68,106.504,106.504,106.504
	S285,327.944,285,269.12S237.32,162.616,178.496,162.616L178.496,162.616z"/>
<path style="fill:#EAB14B;" d="M178.496,189.976c-43.712,0-79.152,35.432-79.152,79.152s35.432,79.152,79.152,79.152
	s79.152-35.432,79.152-79.152S222.216,189.976,178.496,189.976L178.496,189.976z"/>
<g>
	<rect x="310.264" y="253.936" style="fill:#FFD07D;" width="46.736" height="22.312"/>
	<rect x="167.344" y="90.624" style="fill:#FFD07D;" width="22.312" height="46.736"/>
	
		<rect x="264.805" y="148.298" transform="matrix(-0.7071 0.7071 -0.7071 -0.7071 604.6924 68.4355)" style="fill:#FFD07D;" width="46.736" height="22.312"/>
	
		<rect x="57.665" y="136.079" transform="matrix(-0.7071 0.7071 -0.7071 -0.7071 230.2304 223.5282)" style="fill:#FFD07D;" width="22.312" height="46.736"/>
	<rect y="253.936" style="fill:#FFD07D;" width="46.736" height="22.312"/>
</g>
<path style="fill:#DFE6F4;" d="M267.312,317.776h-4.176c-4.152-17.456-19.88-30.536-38.696-30.536c-4.568,0-9.2,1.008-13.032,2.288
	c-9.2-26.12-34.128-44.872-63.512-44.872c-37.208,0-67.368,30.008-67.368,67.032c0,2.336,0.128,4.632,0.352,6.904
	c-24.456,4.208-43.224,25.496-43.224,50.984c0,28.488,23.424,51.8,52.048,51.8h177.584c28.624,0,52.048-23.304,52.048-51.8
	C319.36,341.096,295.944,317.776,267.312,317.776z"/>
<g>
</g>
<g>
</g>
<g>
</g>
<g>
</g>
<g>
</g>
<g>
</g>
<g>
</g>
<g>
</g>
<g>
</g>
<g>
</g>
<g>
</g>
<g>
</g>
<g>
</g>
<g>
</g>
<g>
</g>
</svg>
