<?xml version="1.0" encoding="iso-8859-1"?>
<!-- Generator: Adobe Illustrator 19.0.0, SVG Export Plug-In . SVG Version: 6.00 Build 0)  -->
<svg version="1.1" id="Capa_1" xmlns="http://www.w3.org/2000/svg" xmlns:xlink="http://www.w3.org/1999/xlink" x="0px" y="0px"
	 viewBox="0 0 512.008 512.008" style="enable-background:new 0 0 512.008 512.008;" xml:space="preserve">
<path style="fill:#629FD6;" d="M417.44,163.98h-7.584c-7.544-31.728-36.136-55.504-70.336-55.504
	c-8.312,0-16.728,1.832-23.696,4.152C299.096,65.156,253.792,31.06,200.376,31.06C132.744,31.06,77.92,85.604,77.92,152.9
	c0,4.24,0.232,8.416,0.64,12.552C34.112,173.1,0,211.796,0,258.116c0,51.776,42.576,94.16,94.608,94.16H417.4
	c52.032,0,94.608-42.36,94.608-94.16C512.04,206.356,469.472,163.98,417.44,163.98z"/>
<polygon style="fill:#FFD07D;" points="291.168,155.804 109.08,311.412 204.752,311.412 109.08,480.948 316.088,273.94 
	231.08,273.94 "/>
<g>
</g>
<g>
</g>
<g>
</g>
<g>
</g>
<g>
</g>
<g>
</g>
<g>
</g>
<g>
</g>
<g>
</g>
<g>
</g>
<g>
</g>
<g>
</g>
<g>
</g>
<g>
</g>
<g>
</g>
</svg>
