<svg id="Layer_5" enable-background="new 0 0 64 64" height="512" viewBox="0 0 64 64" width="512" xmlns="http://www.w3.org/2000/svg"><g><g><g><circle cx="32" cy="32" fill="#69d6f4" r="12"/></g><g><path d="m54 21c0 1.52-1.15 4.76-1.71 6.24-.17.46-.61.76-1.1.76-.66 0-1.19-.53-1.19-1.19v-.81c0-3-4-3-4-5 0-.56.22-1.08.58-1.53.97.33 2.15.53 3.42.53s2.45-.2 3.42-.53c.36.45.58.97.58 1.53z" fill="#aab2bd"/></g><g><path d="m50 2c6.63 0 12 1.34 12 3 0 .89-1.53 1.68-3.96 2.22-2.13.48-4.94.78-8.04.78s-5.91-.3-8.04-.78c-2.43-.54-3.96-1.33-3.96-2.22 0-1.66 5.37-3 12-3z" fill="#ccd1d9"/></g><g><path d="m56.53 11.27c.92.49 1.47 1.08 1.47 1.73 0 .95-1.17 1.79-3 2.34-1.37.41-3.11.66-5 .66s-3.63-.25-5-.66c-1.83-.55-3-1.39-3-2.34 0-.65.55-1.24 1.47-1.73 1.75.45 4.03.73 6.53.73s4.78-.28 6.53-.73z" fill="#ccd1d9"/></g><g><path d="m60 9c0 .91-1.35 1.72-3.47 2.27-1.75.45-4.03.73-6.53.73s-4.78-.28-6.53-.73c-2.12-.55-3.47-1.36-3.47-2.27 0-.67.73-1.28 1.96-1.78 2.13.48 4.94.78 8.04.78s5.91-.3 8.04-.78c1.23.5 1.96 1.11 1.96 1.78z" fill="#ccd1d9"/></g><g><path d="m55 15.34c.63.48 1 1.05 1 1.66 0 1.02-1.02 1.93-2.58 2.46v.01c-.97.33-2.15.53-3.42.53s-2.45-.2-3.42-.53v-.01c-1.56-.53-2.58-1.44-2.58-2.46 0-.61.37-1.18 1-1.66 1.37.41 3.11.66 5 .66s3.63-.25 5-.66z" fill="#ccd1d9"/></g><g><path d="m58 46c2.21 0 4 1.79 4 4s-1.79 4-4 4h-3.41c-.96-2.33-3.55-4-6.59-4-2.74 0-5.1 1.34-6.25 3.31-1.06-.72-1.75-1.94-1.75-3.31 0-2 1.47-3.64 3.38-3.94.94-2.36 3.55-4.06 6.62-4.06 3.15 0 5.81 1.78 6.69 4.24.41-.15.85-.24 1.31-.24z" fill="#ccd1d9"/></g><g><path d="m54.62 54.06c1.91.3 3.38 1.94 3.38 3.94 0 2.21-1.79 4-4 4h-14c-2.21 0-4-1.79-4-4s1.79-4 4-4c.46 0 .9.09 1.31.24.12-.32.26-.63.44-.93 1.15-1.97 3.51-3.31 6.25-3.31 3.04 0 5.63 1.67 6.59 4 .01.02.02.04.03.06z" fill="#e6e9ed"/></g><g><path d="m20 44c2.21 0 4 1.79 4 4s-1.79 4-4 4h-14c-2.21 0-4-1.79-4-4 0-2 1.47-3.64 3.38-3.94.94-2.36 3.55-4.06 6.62-4.06 3.15 0 5.81 1.78 6.69 4.24.41-.15.85-.24 1.31-.24z" fill="#e6e9ed"/></g><g><circle cx="13" cy="13" fill="#ffc729" r="5"/></g></g><g><path d="m32 45c7.168 0 13-5.832 13-13s-5.832-13-13-13-13 5.832-13 13 5.832 13 13 13zm0-24c1.075 0 2.22 1.527 3.009 4h-6.019c.79-2.473 1.935-4 3.01-4zm3.519 6c.244 1.209.408 2.553.46 4h-7.958c.052-1.447.217-2.791.46-4zm7.43 4h-4.971c-.046-1.419-.184-2.763-.409-4h4.216c.627 1.221 1.035 2.57 1.164 4zm-10.949 12c-1.075 0-2.22-1.527-3.009-4h6.019c-.79 2.473-1.935 4-3.01 4zm-3.519-6c-.244-1.209-.408-2.553-.46-4h7.958c-.052 1.447-.217 2.791-.46 4zm9.497-4h4.971c-.13 1.43-.537 2.779-1.164 4h-4.216c.225-1.237.364-2.581.409-4zm-11.956-2h-4.971c.13-1.43.537-2.779 1.164-4h4.216c-.225 1.237-.364 2.581-.409 4zm0 2c.046 1.419.184 2.763.409 4h-4.216c-.626-1.221-1.034-2.57-1.164-4zm-2.501 6h3.373c.368 1.295.837 2.422 1.391 3.341-1.873-.676-3.517-1.834-4.764-3.341zm12.193 3.341c.553-.919 1.023-2.046 1.391-3.341h3.373c-1.246 1.507-2.89 2.665-4.764 3.341zm4.765-17.341h-3.373c-.368-1.295-.837-2.422-1.391-3.341 1.873.676 3.517 1.834 4.764 3.341zm-12.193-3.341c-.553.919-1.023 2.046-1.391 3.341h-3.373c1.246-1.507 2.89-2.665 4.764-3.341z"/><path d="m20 43c-.244 0-.488.02-.735.061-1.292-2.461-4.096-4.061-7.265-4.061-3.19 0-6.061 1.664-7.324 4.191-2.16.586-3.676 2.528-3.676 4.809 0 2.757 2.243 5 5 5h14c2.757 0 5-2.243 5-5s-2.243-5-5-5zm0 8h-14c-1.654 0-3-1.346-3-3 0-1.479 1.066-2.72 2.535-2.949l.563-.089.211-.529c.818-2.053 3.105-3.433 5.691-3.433 2.632 0 4.997 1.47 5.75 3.574l.334.934.937-.326c.35-.122.67-.182.979-.182 1.654 0 3 1.346 3 3s-1.346 3-3 3z"/><path d="m58 45c-.244 0-.488.02-.735.061-1.292-2.461-4.096-4.061-7.265-4.061-3.19 0-6.061 1.664-7.324 4.191-2.16.586-3.676 2.528-3.676 4.809 0 1.099.368 2.146 1.012 3.001-.004 0-.008-.001-.012-.001-2.757 0-5 2.243-5 5s2.243 5 5 5h14c2.757 0 5-2.243 5-5 0-1.124-.371-2.163-1.002-3h.002c2.757 0 5-2.243 5-5s-2.243-5-5-5zm-4 16h-14c-1.654 0-3-1.346-3-3s1.346-3 3-3c.309 0 .629.06.979.182l.937.326.334-.934c.753-2.104 3.118-3.574 5.75-3.574 2.586 0 4.873 1.38 5.691 3.433l.211.529.563.089c1.469.229 2.535 1.47 2.535 2.949 0 1.654-1.346 3-3 3zm4-8h-2.791c-1.312-2.416-4.103-4-7.209-4-2.58 0-4.902 1.072-6.379 2.793-.387-.513-.621-1.133-.621-1.793 0-1.479 1.066-2.72 2.535-2.949l.563-.089.211-.529c.818-2.053 3.105-3.433 5.691-3.433 2.632 0 4.997 1.47 5.75 3.574l.334.934.937-.326c.35-.122.67-.182.979-.182 1.654 0 3 1.346 3 3s-1.346 3-3 3z"/><path d="m6 57h2v2h-2z"/><path d="m6 61h2v2h-2z"/><path d="m10 59h2v2h-2z"/><path d="m10 55h2v2h-2z"/><path d="m14 57h2v2h-2z"/><path d="m14 61h2v2h-2z"/><path d="m18 59h2v2h-2z"/><path d="m18 55h2v2h-2z"/><path d="m31 1h2v16h-2z"/><path d="m1 31h16v2h-16z"/><path d="m31 47h2v16h-2z"/><path d="m47 31h16v2h-16z"/><path d="m13 19c3.309 0 6-2.691 6-6s-2.691-6-6-6-6 2.691-6 6 2.691 6 6 6zm0-10c2.206 0 4 1.794 4 4s-1.794 4-4 4-4-1.794-4-4 1.794-4 4-4z"/><path d="m12 1h2v4h-2z"/><path d="m4.929 3.929h2v4h-2z" transform="matrix(.707 -.707 .707 .707 -2.456 5.929)"/><path d="m1 12h4v2h-4z"/><path d="m3.929 19.071h4v2h-4z" transform="matrix(.707 -.707 .707 .707 -12.456 10.071)"/><path d="m12 21h2v4h-2z"/><path d="m19.071 18.072h2v4h-2z" transform="matrix(.707 -.707 .707 .707 -8.314 20.071)"/><path d="m21 12h4v2h-4z"/><path d="m18.072 4.929h4v2h-4z" transform="matrix(.707 -.707 .707 .707 1.687 15.929)"/><path d="m39.601 7.555c-.396.437-.601.919-.601 1.445 0 1.128.97 2 2.469 2.64-.358.497-.469.976-.469 1.36 0 1.177.913 2.1 2.319 2.763-.243.461-.319.893-.319 1.237 0 1.193.829 2.229 2.185 2.949-.119.342-.185.695-.185 1.051 0 1.459 1.206 2.198 2.176 2.792 1.131.692 1.824 1.169 1.824 2.208v.814c0 1.206.98 2.186 2.186 2.186.905 0 1.728-.567 2.046-1.413.806-2.148 1.768-5.033 1.768-6.587 0-.356-.066-.709-.185-1.051 1.356-.72 2.185-1.756 2.185-2.949 0-.344-.076-.776-.319-1.237 1.406-.663 2.319-1.586 2.319-2.763 0-.384-.111-.863-.469-1.36 1.499-.64 2.469-1.512 2.469-2.64 0-.526-.205-1.008-.601-1.445 1.554-.604 2.601-1.43 2.601-2.555 0-3.157-8.172-4-13-4s-13 .843-13 4c0 1.125 1.047 1.951 2.601 2.555zm13.399 13.445c0 .95-.613 3.149-1.641 5.883-.062.164-.359.113-.359-.069v-.814c0-2.212-1.606-3.195-2.78-3.914-.759-.465-1.22-.77-1.22-1.086 0-.115.034-.23.069-.346.883.222 1.871.346 2.931.346s2.048-.125 2.931-.346c.035.116.069.231.069.346zm2-4c0 .815-1.948 2-5 2s-5-1.185-5-2c0-.2.124-.392.27-.554 1.432.366 3.084.554 4.73.554s3.298-.188 4.73-.554c.146.162.27.354.27.554zm2-4c0 .58-2.453 2-7 2s-7-1.42-7-2c0-.117.19-.374.644-.666 1.9.447 4.16.666 6.356.666s4.456-.219 6.356-.666c.454.292.644.549.644.666zm2.002-4.015c-.152.555-3.151 2.015-9.002 2.015s-8.85-1.46-9.002-1.981c.026-.088.284-.396 1.076-.756 2.573.542 5.626.737 7.926.737s5.353-.196 7.926-.737c.792.359 1.05.665 1.076.722zm-9.002-5.985c6.466 0 10.406 1.246 10.969 2-.563.754-4.503 2-10.969 2s-10.406-1.246-10.969-2c.563-.754 4.503-2 10.969-2z"/></g></g></svg>